<?xml version="1.0" standalone="no"?>
<!DOCTYPE svg PUBLIC "-//W3C//DTD SVG 20010904//EN"
 "http://www.w3.org/TR/2001/REC-SVG-20010904/DTD/svg10.dtd">
<svg version="1.0" xmlns="http://www.w3.org/2000/svg"
 width="400.000000pt" height="400.000000pt" viewBox="0 0 400.000000 400.000000"
 preserveAspectRatio="xMidYMid meet">

<g transform="translate(0.000000,400.000000) scale(0.100000,-0.100000)"
fill="#000000" stroke="none">
<path d="M1719 2286 c-2 -2 -2 -131 1 -286 3 -155 2 -287 -2 -293 -8 -14 11
-39 23 -31 5 3 9 142 9 310 0 247 -3 304 -13 304 -8 0 -16 -2 -18 -4z"/>
<path d="M276 2165 l-26 -24 0 -176 0 -175 25 0 24 0 3 157 c3 131 6 158 18
161 15 2 21 -7 54 -76 9 -19 28 -50 44 -70 15 -21 36 -56 47 -79 10 -24 22
-43 26 -43 4 0 10 -9 14 -19 7 -22 54 -36 85 -26 23 7 71 75 116 165 22 43 56
94 67 98 4 2 7 9 7 15 0 23 17 38 33 31 15 -5 17 -24 17 -144 0 -76 3 -145 6
-154 9 -25 41 -19 48 8 10 39 5 299 -6 319 -15 29 -47 57 -64 57 -21 0 -73
-57 -95 -107 -11 -23 -23 -43 -27 -45 -9 -4 -60 -86 -88 -141 -23 -47 -23 -47
-51 -36 -14 5 -23 17 -23 29 0 11 -5 20 -10 20 -6 0 -15 11 -20 25 -5 14 -14
25 -19 25 -4 0 -11 13 -14 29 -3 16 -14 37 -24 47 -20 19 -35 43 -57 89 -12
25 -61 65 -79 65 -2 0 -16 -11 -31 -25z"/>
<path d="M1020 2163 c-42 -15 -60 -46 -60 -100 0 -97 48 -116 290 -111 85 1
160 -1 167 -5 19 -12 14 -76 -7 -87 -11 -6 -109 -10 -224 -10 -127 0 -207 -4
-211 -10 -3 -6 -3 -20 0 -31 7 -20 12 -21 230 -17 211 3 225 4 243 24 23 24
32 86 20 131 -16 59 -47 67 -268 73 l-194 5 -3 38 c-1 23 3 40 11 43 7 2 111
6 232 7 l219 2 3 28 3 27 -218 -1 c-120 0 -225 -3 -233 -6z"/>
<path d="M1977 2162 c-15 -3 -17 -22 -17 -182 0 -113 4 -181 10 -185 22 -13
40 17 40 65 0 34 4 50 16 54 20 8 342 8 372 0 19 -6 22 -13 22 -60 0 -41 4
-56 16 -61 33 -12 47 65 19 103 -19 25 -19 68 0 84 21 17 19 95 -2 131 -10 16
-32 34 -50 40 -30 10 -384 19 -426 11z m424 -52 c24 -14 27 -95 3 -128 -15
-21 -20 -22 -192 -22 -97 0 -182 4 -188 8 -6 4 -12 34 -13 67 -2 33 -5 63 -7
67 -7 12 36 15 209 17 100 0 176 -3 188 -9z"/>
<path d="M2774 2162 c-56 -5 -80 -53 -68 -135 9 -61 31 -67 251 -67 103 0 193
-4 199 -8 6 -4 14 -24 17 -44 5 -31 2 -40 -14 -49 -13 -7 -99 -10 -235 -9
l-214 1 0 -25 c0 -31 24 -34 253 -30 204 4 226 11 248 76 11 35 11 44 -6 74
-31 58 -64 66 -270 68 l-180 1 -3 38 c-2 20 -8 37 -15 37 -6 0 -2 7 9 15 15
12 61 14 236 15 211 0 216 0 211 20 -3 11 -10 20 -17 21 -57 2 -378 3 -402 1z"/>
<path d="M3294 2157 c-2 -7 -3 -91 -2 -187 3 -148 5 -175 18 -175 12 0 16 24
20 140 6 176 3 222 -16 229 -8 3 -17 0 -20 -7z"/>
<path d="M3660 2160 c-19 -4 -64 -24 -100 -43 -36 -20 -87 -47 -115 -61 -55
-28 -78 -56 -68 -83 9 -25 39 -53 58 -53 9 0 18 -7 21 -15 4 -8 12 -15 19 -15
8 0 40 -13 72 -30 31 -16 62 -30 67 -30 5 0 17 -6 25 -14 23 -20 101 -32 100
-14 0 12 -124 78 -148 78 -6 0 -11 4 -11 9 0 9 -120 71 -139 71 -16 0 -13 27
4 34 8 3 15 12 15 21 0 8 8 15 18 15 10 0 57 20 105 45 48 25 94 45 102 45 8
0 15 5 15 10 0 6 7 10 15 10 20 0 19 16 -1 24 -9 3 -16 5 -17 5 -1 -1 -18 -5
-37 -9z"/>
<path d="M2560 1981 c0 -154 2 -180 16 -185 9 -3 20 -4 25 0 5 3 9 86 9 185
l0 179 -25 0 -25 0 0 -179z"/>
</g>
</svg>
